<?xml version="1.0" encoding="us-ascii" standalone="no"?><svg xmlns="http://www.w3.org/2000/svg" xmlns:xlink="http://www.w3.org/1999/xlink" contentStyleType="text/css" height="885.4167px" preserveAspectRatio="none" style="width:473px;height:885px;background:#FFFFFF;" version="1.1" viewBox="0 0 473 885" width="473.9583px" zoomAndPan="magnify"><defs/><g><!--cluster BookHub--><g id="cluster_BookHub"><rect fill="none" height="856.25" rx="4.1667" ry="4.1667" style="stroke:#2FA4E7;stroke-width:2.0833333333333335;" width="340.625" x="121.875" y="17.7083"/><text fill="#2FA4E7" font-family="Verdana" font-size="12.5" font-weight="bold" lengthAdjust="spacing" textLength="65.625" x="259.375" y="36.6028">BookHub</text></g><g id="elem_nt"><path d="M138.5417,65.625 L138.5417,107.2266 A4.1667,4.1667 0 0 0 142.7083,111.3932 L441.6667,111.3932 A4.1667,4.1667 0 0 0 445.8333,107.2266 L445.8333,71.875 L435.4167,61.4583 L142.7083,61.4583 A4.1667,4.1667 0 0 0 138.5417,65.625 " fill="none" style="stroke:#033C73;stroke-width:1.0416666666666667;"/><path d="M435.4167,61.4583 L435.4167,69.7917 A2.0833,2.0833 0 0 0 437.5,71.875 L445.8333,71.875 L435.4167,61.4583 " fill="none" style="stroke:#033C73;stroke-width:1.0416666666666667;"/><text fill="#033C73" font-family="Verdana" font-size="12.5" lengthAdjust="spacing" textLength="270.8333" x="150" y="83.4778">For simplicity, 'manage' can be considered</text><text fill="#033C73" font-family="Verdana" font-size="12.5" lengthAdjust="spacing" textLength="228.125" x="154.1667" y="98.0286">as standard set of CRUD operations.</text></g><g id="elem_auth"><ellipse cx="291.9538" cy="329.113" fill="none" rx="62.7871" ry="20.7797" style="stroke:#2FA4E7;stroke-width:2.0833333333333335;"/><text fill="#2FA4E7" font-family="Verdana" font-size="12.5" lengthAdjust="spacing" textLength="61.4583" x="261.2246" y="331.357">Log in/out</text></g><g id="elem_M_store"><ellipse cx="292.4155" cy="170.8789" fill="none" rx="102.3113" ry="22.9623" style="stroke:#2FA4E7;stroke-width:2.0833333333333335;"/><text fill="#2FA4E7" font-family="Verdana" font-size="12.5" lengthAdjust="spacing" textLength="131.25" x="226.7905" y="173.123">Manage Book Stores</text></g><g id="elem_M_inv"><ellipse cx="292.2106" cy="416.5671" fill="none" rx="135.4398" ry="29.588" style="stroke:#2FA4E7;stroke-width:2.0833333333333335;"/><text fill="#2FA4E7" font-family="Verdana" font-size="12.5" lengthAdjust="spacing" textLength="210.4167" x="187.0023" y="418.8112">Manage His Book Store Inventory</text></g><g id="elem_M_acc"><ellipse cx="292.3677" cy="834.6194" fill="none" rx="100.701" ry="22.6402" style="stroke:#2FA4E7;stroke-width:2.0833333333333335;"/><text fill="#2FA4E7" font-family="Verdana" font-size="12.5" lengthAdjust="spacing" textLength="127.0833" x="228.826" y="836.8634">Manage His Account</text></g><g id="elem_M_ord"><ellipse cx="291.9431" cy="505.0553" fill="none" rx="98.7139" ry="22.2428" style="stroke:#2FA4E7;stroke-width:2.0833333333333335;"/><text fill="#2FA4E7" font-family="Verdana" font-size="12.5" lengthAdjust="spacing" textLength="121.875" x="231.0056" y="507.2993">Manage His Orders</text></g><g id="elem_M_wish"><ellipse cx="292.3" cy="587.6267" fill="none" rx="102.7166" ry="23.0433" style="stroke:#2FA4E7;stroke-width:2.0833333333333335;"/><text fill="#2FA4E7" font-family="Verdana" font-size="12.5" lengthAdjust="spacing" textLength="132.2917" x="226.1541" y="589.8707">Manage His Wishlists</text></g><g id="elem_R_book"><ellipse cx="291.9385" cy="667.6547" fill="none" rx="71.626" ry="20.7797" style="stroke:#2FA4E7;stroke-width:2.0833333333333335;"/><text fill="#2FA4E7" font-family="Verdana" font-size="12.5" lengthAdjust="spacing" textLength="73.9583" x="254.9593" y="669.8987">View Books</text></g><g id="elem_Rate_book"><ellipse cx="292.3325" cy="750.1332" fill="none" rx="113.1658" ry="25.1332" style="stroke:#2FA4E7;stroke-width:2.0833333333333335;"/><text fill="#2FA4E7" font-family="Verdana" font-size="12.5" lengthAdjust="spacing" textLength="158.3333" x="213.1658" y="752.3772">Manage His Book Ratings</text></g><g id="elem_M_book"><ellipse cx="292.1759" cy="250.988" fill="none" rx="84.8842" ry="20.7797" style="stroke:#2FA4E7;stroke-width:2.0833333333333335;"/><text fill="#2FA4E7" font-family="Verdana" font-size="12.5" lengthAdjust="spacing" textLength="92.7083" x="245.8217" y="253.232">Manage Books</text></g><!--entity adm--><g id="elem_adm"><ellipse cx="43.75" cy="216.1458" fill="none" rx="8.3333" ry="8.3333" style="stroke:#2FA4E7;stroke-width:1.0416666666666667;"/><path d="M43.75,224.4792 L43.75,252.6042 M30.2083,232.8125 L57.2917,232.8125 M43.75,252.6042 L30.2083,268.2292 M43.75,252.6042 L57.2917,268.2292 " fill="none" style="stroke:#2FA4E7;stroke-width:1.0416666666666667;"/><text fill="#2FA4E7" font-family="Verdana" font-size="12.5" lengthAdjust="spacing" textLength="38.5417" x="24.4792" y="287.1236">Admin</text></g><!--entity mgr--><g id="elem_mgr"><ellipse cx="43.75" cy="361.9792" fill="none" rx="8.3333" ry="8.3333" style="stroke:#2FA4E7;stroke-width:1.0416666666666667;"/><path d="M43.75,370.3125 L43.75,398.4375 M30.2083,378.6458 L57.2917,378.6458 M43.75,398.4375 L30.2083,414.0625 M43.75,398.4375 L57.2917,414.0625 " fill="none" style="stroke:#2FA4E7;stroke-width:1.0416666666666667;"/><text fill="#2FA4E7" font-family="Verdana" font-size="12.5" lengthAdjust="spacing" textLength="54.1667" x="16.6667" y="432.9569">Manager</text></g><!--entity usr--><g id="elem_usr"><ellipse cx="43.75" cy="593.2292" fill="none" rx="8.3333" ry="8.3333" style="stroke:#2FA4E7;stroke-width:1.0416666666666667;"/><path d="M43.75,601.5625 L43.75,629.6875 M30.2083,609.8958 L57.2917,609.8958 M43.75,629.6875 L30.2083,645.3125 M43.75,629.6875 L57.2917,645.3125 " fill="none" style="stroke:#2FA4E7;stroke-width:1.0416666666666667;"/><text fill="#2FA4E7" font-family="Verdana" font-size="12.5" lengthAdjust="spacing" textLength="30.2083" x="28.6458" y="664.2069">User</text></g><!--link usr to auth--><g id="link_usr_auth"><path d="M53.9578,583.6354 C68.7857,513.5313 97.9433,383.7396 113.5417,368.75 C143.95,339.5281 184.7052,330.4152 222.7146,328.0058 " fill="none" id="usr-to-auth" style="stroke:#2FA4E7;stroke-width:3.125;"/><polygon fill="#2FA4E7" points="228.9521,327.6104,219.3323,324.0452,223.7542,327.9399,219.8595,332.3618,228.9521,327.6104" style="stroke:#2FA4E7;stroke-width:3.125;"/></g><!--link usr to M_acc--><g id="link_usr_M_acc"><path d="M51.6276,672.4333 C59.8097,710.2115 77.2623,763.124 113.5417,793.75 C136.0198,812.7254 159.4778,822.0436 188.0393,827.7855 " fill="none" id="usr-to-M_acc" style="stroke:#2FA4E7;stroke-width:3.125;"/><polygon fill="#2FA4E7" points="194.1667,829.0174,185.7968,823.0847,189.0605,827.9909,184.1543,831.2546,194.1667,829.0174" style="stroke:#2FA4E7;stroke-width:3.125;"/></g><!--link usr to M_ord--><g id="link_usr_M_ord"><path d="M64.2138,595.9083 C76.306,578.5375 93.3835,558.1875 113.5417,545.8333 C139.701,529.801 165.4065,521.3099 194.8586,515.4256 " fill="none" id="usr-to-M_ord" style="stroke:#2FA4E7;stroke-width:3.125;"/><polygon fill="#2FA4E7" points="200.9875,514.201,190.9778,511.9519,195.8801,515.2215,192.6105,520.1237,200.9875,514.201" style="stroke:#2FA4E7;stroke-width:3.125;"/></g><!--link usr to M_wish--><g id="link_usr_M_wish"><path d="M64.1227,624.9375 C95.0889,619.8313 151.4093,610.5429 202.9999,602.0356 " fill="none" id="usr-to-M_wish" style="stroke:#2FA4E7;stroke-width:3.125;"/><polygon fill="#2FA4E7" points="209.1667,601.0188,199.2387,598.4329,204.0277,601.8662,200.5945,606.6552,209.1667,601.0188" style="stroke:#2FA4E7;stroke-width:3.125;"/></g><!--link usr to R_book--><g id="link_usr_R_book"><path d="M64.1227,631.2313 C99.1723,636.8625 168.4343,647.9919 222.7396,656.7169 " fill="none" id="usr-to-R_book" style="stroke:#2FA4E7;stroke-width:3.125;"/><polygon fill="#2FA4E7" points="228.9104,657.7083,220.3151,652.1073,223.768,656.8821,218.9932,660.3351,228.9104,657.7083" style="stroke:#2FA4E7;stroke-width:3.125;"/></g><!--link usr to Rate_book--><g id="link_usr_Rate_book"><path d="M64.2307,658.6365 C76.4396,675.4042 93.6271,695.1958 113.5417,707.2917 C137.5292,721.8615 160.0698,730.0466 187.2635,736.3716 " fill="none" id="usr-to-Rate_book" style="stroke:#2FA4E7;stroke-width:3.125;"/><polygon fill="#2FA4E7" points="193.351,737.7875,185.1637,731.6053,188.2781,736.6076,183.2759,739.722,193.351,737.7875" style="stroke:#2FA4E7;stroke-width:3.125;"/></g><!--link adm to M_store--><g id="link_adm_M_store"><path d="M68.4089,235.0979 C81.2829,227.0208 97.77,217.6417 113.5417,211.4583 C143.8729,199.5667 172.4298,191.9447 203.0433,185.5551 " fill="none" id="adm-to-M_store" style="stroke:#2FA4E7;stroke-width:3.125;"/><polygon fill="#2FA4E7" points="209.1615,184.2781,199.1329,182.1148,204.063,185.3423,200.8355,190.2723,209.1615,184.2781" style="stroke:#2FA4E7;stroke-width:3.125;"/></g><!--link adm to M_book--><g id="link_adm_M_book"><path d="M68.4131,251.0417 C100.1466,251.0417 151.9604,251.0417 200.8479,251.0417 " fill="none" id="adm-to-M_book" style="stroke:#2FA4E7;stroke-width:3.125;"/><polygon fill="#2FA4E7" points="207.0979,251.0417,197.7229,246.875,201.8896,251.0417,197.7229,255.2083,207.0979,251.0417" style="stroke:#2FA4E7;stroke-width:3.125;"/></g><!--link mgr to M_inv--><g id="link_mgr_M_inv"><path d="M76.4939,399.4219 C99.3657,401.2594 125.6472,403.3702 158.469,406.0077 " fill="none" id="mgr-to-M_inv" style="stroke:#2FA4E7;stroke-width:3.125;"/><polygon fill="#2FA4E7" points="164.699,406.5083,155.6878,401.6041,159.5074,406.0911,155.0203,409.9107,164.699,406.5083" style="stroke:#2FA4E7;stroke-width:3.125;"/></g><!--link mgr to auth--><g id="link_mgr_auth"><path d="M76.2133,382.7146 C87.7904,377.8458 101.1132,372.6469 113.5417,368.75 C153.9344,356.0865 194.5673,347.0292 229.9694,340.1344 " fill="none" id="mgr-to-auth" style="stroke:#2FA4E7;stroke-width:3.125;"/><polygon fill="#2FA4E7" points="236.1042,338.9396,226.1055,336.6419,230.9919,339.9352,227.6986,344.8216,236.1042,338.9396" style="stroke:#2FA4E7;stroke-width:3.125;"/></g><!--link adm to auth--><g id="link_adm_auth"><path d="M68.4498,266.575 C81.3355,274.4417 97.8205,283.574 113.5417,289.5833 C152.6396,304.5292 192.6884,313.5237 228.1676,319.7695 " fill="none" id="adm-to-auth" style="stroke:#2FA4E7;stroke-width:3.125;"/><polygon fill="#2FA4E7" points="234.3229,320.8531,225.8123,315.1242,229.1935,319.9501,224.3675,323.3313,234.3229,320.8531" style="stroke:#2FA4E7;stroke-width:3.125;"/></g><!--SRC=[TPB1ZXCn38RlUGgpbu94uGsGbaLeaQYGYXOkI2itySvOpJXLx6crGhmxoMIcHTfoo-zyTduxNi6HTSG8IcOidRfNrjD0u2cFaL3MQRJ8GgxdKAASVIIdUvO3PXnWXtxVvJHAk4inPJZrREHSf2S3Iv2vwmq2P_B6IPn3RuMw3GCBe0A6OGvjKB2ZN8D3b-VWWxR8gDavLukWT97WOqhx-t47lvqa8xZvN5ZbuH3Pips_XTKmLLk1Hu5TiPr4Y_rC0NvDxsef5327sZQa9xZRFdo2TA2CrQQ-kwcGc7EZaaSbUFqrTS3olapZpMHyjFvosSnFjk1xCKuwGPj7hU85Ty_w3mjVv4XIJizp4ilnQigjzsNGDbFe_LNgMowDBk-d7Av2Frdxo6eBTohw0lvWEaq6s_NsSLVE_-zYYzFcD1QDhkENUfi6_AdJpR1UVrYcsSJIsg9Q3ukQdJPvTZRBy-EkBDQSqBxWejjzsR5PrscVvMHaOQlu2m00]--></g></svg>