<?xml version="1.0" encoding="us-ascii" standalone="no"?><svg xmlns="http://www.w3.org/2000/svg" xmlns:xlink="http://www.w3.org/1999/xlink" contentStyleType="text/css" height="951.0417px" preserveAspectRatio="none" style="width:717px;height:951px;background:#FFFFFF;" version="1.1" viewBox="0 0 717 951" width="717.7083px" zoomAndPan="magnify"><defs/><g><!--cluster BookHub--><g id="cluster_BookHub"><rect fill="none" height="856.25" rx="4.1667" ry="4.1667" style="stroke:#2FA4E7;stroke-width:2.0833333333333335;" width="340.625" x="358.8542" y="83.3333"/><text fill="#2FA4E7" font-family="Verdana" font-size="12.5" font-weight="bold" lengthAdjust="spacing" textLength="65.625" x="496.3542" y="102.2278">BookHub</text></g><g id="elem_nt"><path d="M375.5208,131.25 L375.5208,172.8516 A4.1667,4.1667 0 0 0 379.6875,177.0182 L678.6458,177.0182 A4.1667,4.1667 0 0 0 682.8125,172.8516 L682.8125,137.5 L672.3958,127.0833 L379.6875,127.0833 A4.1667,4.1667 0 0 0 375.5208,131.25 " fill="none" style="stroke:#033C73;stroke-width:1.0416666666666667;"/><path d="M672.3958,127.0833 L672.3958,135.4167 A2.0833,2.0833 0 0 0 674.4792,137.5 L682.8125,137.5 L672.3958,127.0833 " fill="none" style="stroke:#033C73;stroke-width:1.0416666666666667;"/><text fill="#033C73" font-family="Verdana" font-size="12.5" lengthAdjust="spacing" textLength="270.8333" x="386.9792" y="149.1028">For simplicity, 'manage' can be considered</text><text fill="#033C73" font-family="Verdana" font-size="12.5" lengthAdjust="spacing" textLength="228.125" x="391.1458" y="163.6536">as standard set of CRUD operations.</text></g><g id="elem_auth"><ellipse cx="528.933" cy="491.613" fill="none" rx="62.7871" ry="20.7797" style="stroke:#2FA4E7;stroke-width:2.0833333333333335;"/><text fill="#2FA4E7" font-family="Verdana" font-size="12.5" lengthAdjust="spacing" textLength="61.4583" x="498.2038" y="493.857">Log in/out</text></g><g id="elem_M_store"><ellipse cx="529.3946" cy="236.5039" fill="none" rx="102.3113" ry="22.9623" style="stroke:#2FA4E7;stroke-width:2.0833333333333335;"/><text fill="#2FA4E7" font-family="Verdana" font-size="12.5" lengthAdjust="spacing" textLength="131.25" x="463.7696" y="238.748">Manage Book Stores</text></g><g id="elem_M_inv"><ellipse cx="529.1898" cy="404.0671" fill="none" rx="135.4398" ry="29.588" style="stroke:#2FA4E7;stroke-width:2.0833333333333335;"/><text fill="#2FA4E7" font-family="Verdana" font-size="12.5" lengthAdjust="spacing" textLength="210.4167" x="423.9814" y="406.3112">Manage His Book Store Inventory</text></g><g id="elem_M_acc"><ellipse cx="529.3469" cy="572.1194" fill="none" rx="100.701" ry="22.6402" style="stroke:#2FA4E7;stroke-width:2.0833333333333335;"/><text fill="#2FA4E7" font-family="Verdana" font-size="12.5" lengthAdjust="spacing" textLength="127.0833" x="465.8052" y="574.3634">Manage His Account</text></g><g id="elem_M_ord"><ellipse cx="528.9222" cy="652.9719" fill="none" rx="98.7139" ry="22.2428" style="stroke:#2FA4E7;stroke-width:2.0833333333333335;"/><text fill="#2FA4E7" font-family="Verdana" font-size="12.5" lengthAdjust="spacing" textLength="121.875" x="467.9847" y="655.216">Manage His Orders</text></g><g id="elem_M_wish"><ellipse cx="529.2791" cy="735.5433" fill="none" rx="102.7166" ry="23.0433" style="stroke:#2FA4E7;stroke-width:2.0833333333333335;"/><text fill="#2FA4E7" font-family="Verdana" font-size="12.5" lengthAdjust="spacing" textLength="132.2917" x="463.1333" y="737.7874">Manage His Wishlists</text></g><g id="elem_R_book"><ellipse cx="528.9176" cy="815.5713" fill="none" rx="71.626" ry="20.7797" style="stroke:#2FA4E7;stroke-width:2.0833333333333335;"/><text fill="#2FA4E7" font-family="Verdana" font-size="12.5" lengthAdjust="spacing" textLength="73.9583" x="491.9385" y="817.8154">View Books</text></g><g id="elem_Rate_book"><ellipse cx="529.3116" cy="898.0498" fill="none" rx="113.1658" ry="25.1332" style="stroke:#2FA4E7;stroke-width:2.0833333333333335;"/><text fill="#2FA4E7" font-family="Verdana" font-size="12.5" lengthAdjust="spacing" textLength="158.3333" x="450.145" y="900.2939">Manage His Book Ratings</text></g><g id="elem_M_book"><ellipse cx="529.1551" cy="316.613" fill="none" rx="84.8842" ry="20.7797" style="stroke:#2FA4E7;stroke-width:2.0833333333333335;"/><text fill="#2FA4E7" font-family="Verdana" font-size="12.5" lengthAdjust="spacing" textLength="92.7083" x="482.8009" y="318.857">Manage Books</text></g><!--entity adm--><g id="elem_adm"><ellipse cx="266.1458" cy="235.9375" fill="none" rx="8.3333" ry="8.3333" style="stroke:#2FA4E7;stroke-width:1.0416666666666667;"/><path d="M266.1458,244.2708 L266.1458,272.3958 M252.6042,252.6042 L279.6875,252.6042 M266.1458,272.3958 L252.6042,288.0208 M266.1458,272.3958 L279.6875,288.0208 " fill="none" style="stroke:#2FA4E7;stroke-width:1.0416666666666667;"/><text fill="#2FA4E7" font-family="Verdana" font-size="12.5" lengthAdjust="spacing" textLength="38.5417" x="246.875" y="306.9153">Admin</text></g><!--entity mgr--><g id="elem_mgr"><ellipse cx="146.875" cy="369.2708" fill="none" rx="8.3333" ry="8.3333" style="stroke:#2FA4E7;stroke-width:1.0416666666666667;"/><path d="M146.875,377.6042 L146.875,405.7292 M133.3333,385.9375 L160.4167,385.9375 M146.875,405.7292 L133.3333,421.3542 M146.875,405.7292 L160.4167,421.3542 " fill="none" style="stroke:#2FA4E7;stroke-width:1.0416666666666667;"/><text fill="#2FA4E7" font-family="Verdana" font-size="12.5" lengthAdjust="spacing" textLength="54.1667" x="119.7917" y="440.2486">Manager</text></g><!--entity usr--><g id="elem_usr"><ellipse cx="31.7708" cy="618.2292" fill="none" rx="8.3333" ry="8.3333" style="stroke:#2FA4E7;stroke-width:1.0416666666666667;"/><path d="M31.7708,626.5625 L31.7708,654.6875 M18.2292,634.8958 L45.3125,634.8958 M31.7708,654.6875 L18.2292,670.3125 M31.7708,654.6875 L45.3125,670.3125 " fill="none" style="stroke:#2FA4E7;stroke-width:1.0416666666666667;"/><text fill="#2FA4E7" font-family="Verdana" font-size="12.5" lengthAdjust="spacing" textLength="30.2083" x="16.6667" y="689.2069">User</text></g><g id="elem_adm_note"><path d="M353.125,20.8333 L353.125,62.4349 A4.1667,4.1667 0 0 0 357.2917,66.6016 L701.0417,66.6016 A4.1667,4.1667 0 0 0 705.2083,62.4349 L705.2083,27.0833 L694.7917,16.6667 L357.2917,16.6667 A4.1667,4.1667 0 0 0 353.125,20.8333 " fill="none" style="stroke:#033C73;stroke-width:1.0416666666666667;"/><path d="M694.7917,16.6667 L694.7917,25 A2.0833,2.0833 0 0 0 696.875,27.0833 L705.2083,27.0833 L694.7917,16.6667 " fill="none" style="stroke:#033C73;stroke-width:1.0416666666666667;"/><text fill="#033C73" font-family="Verdana" font-size="12.5" lengthAdjust="spacing" textLength="268.75" x="364.5833" y="38.6861">The Admin is allowed to Manage Accounts,</text><text fill="#033C73" font-family="Verdana" font-size="12.5" lengthAdjust="spacing" textLength="315.625" x="368.75" y="53.2369">Orders, etc. of other Users and Managers as well.</text></g><!--reverse link usr to mgr--><g id="link_usr_mgr"><path d="M59.8637,593.5374 C80.3541,548.402 104.843,494.4583 125.6594,448.6042 " fill="none" id="usr-backto-mgr" style="stroke:#2FA4E7;stroke-width:3.125;"/><polygon fill="none" points="52.113,610.6104,65.5548,596.1209,54.1727,590.9538,52.113,610.6104" style="stroke:#2FA4E7;stroke-width:3.125;"/></g><!--reverse link mgr to adm--><g id="link_mgr_adm"><path d="M191.6991,354.3521 C211.2252,332.1365 223.5479,318.1146 241.425,297.775 " fill="none" id="mgr-backto-adm" style="stroke:#2FA4E7;stroke-width:3.125;"/><polygon fill="none" points="179.3208,368.4354,196.3936,358.4782,187.0047,350.226,179.3208,368.4354" style="stroke:#2FA4E7;stroke-width:3.125;"/></g><!--link adm to adm_note--><g id="link_adm_adm_note"><path d="M280.4385,226.5396 C293.175,190.8427 315.6906,141.6187 350.5208,110.4167 C372.0698,91.1125 399.6365,76.9729 426.5896,66.7229 " fill="none" id="adm-adm_note" style="stroke:#2FA4E7;stroke-width:3.125;stroke-dasharray:7.0,7.0;"/></g><!--link usr to auth--><g id="link_usr_auth"><path d="M52.1839,635.051 C67.8999,621.3 91.2095,602.8885 114.5833,591.6667 C232.9438,534.8417 380.1107,509.5168 462.8096,498.8554 " fill="none" id="usr-to-auth" style="stroke:#2FA4E7;stroke-width:3.125;"/><polygon fill="#2FA4E7" points="469.0083,498.0563,459.1775,495.1225,463.8427,498.7222,460.243,503.3874,469.0083,498.0563" style="stroke:#2FA4E7;stroke-width:3.125;"/></g><!--link usr to M_acc--><g id="link_usr_M_acc"><path d="M52.3428,645.4917 C68.7254,639.3729 92.8626,631.0135 114.5833,626.0417 C222.575,601.3208 342.9726,587.3675 427.382,579.6852 " fill="none" id="usr-to-M_acc" style="stroke:#2FA4E7;stroke-width:3.125;"/><polygon fill="#2FA4E7" points="433.6063,579.1188,423.8922,575.819,428.4194,579.5908,424.6475,584.118,433.6063,579.1188" style="stroke:#2FA4E7;stroke-width:3.125;"/></g><!--link usr to M_ord--><g id="link_usr_M_ord"><path d="M52.2294,653.125 C114.1148,653.125 303.4406,653.125 423.7531,653.125 " fill="none" id="usr-to-M_ord" style="stroke:#2FA4E7;stroke-width:3.125;"/><polygon fill="#2FA4E7" points="430.0031,653.125,420.6281,648.9583,424.7948,653.125,420.6281,657.2917,430.0031,653.125" style="stroke:#2FA4E7;stroke-width:3.125;"/></g><!--link usr to M_wish--><g id="link_usr_M_wish"><path d="M52.2294,656.351 C116.976,667.1083 321.8991,701.1538 440.0251,720.7798 " fill="none" id="usr-to-M_wish" style="stroke:#2FA4E7;stroke-width:3.125;"/><polygon fill="#2FA4E7" points="446.1906,721.8042,437.6253,716.1573,441.0527,720.9505,436.2595,724.3779,446.1906,721.8042" style="stroke:#2FA4E7;stroke-width:3.125;"/></g><!--link usr to R_book--><g id="link_usr_R_book"><path d="M52.2964,660.8542 C68.8558,667.4146 93.2656,677.0667 114.5833,685.4167 C219.3313,726.4479 242.7896,744.6844 350.5208,777.0833 C388.7427,788.5781 426.4221,796.9313 460.969,803.647 " fill="none" id="usr-to-R_book" style="stroke:#2FA4E7;stroke-width:3.125;"/><polygon fill="#2FA4E7" points="467.1042,804.8396,458.6965,798.9605,461.9915,803.8457,457.1063,807.1408,467.1042,804.8396" style="stroke:#2FA4E7;stroke-width:3.125;"/></g><!--link usr to Rate_book--><g id="link_usr_Rate_book"><path d="M52.2679,670.5063 C68.4081,684.5469 92.2484,704.4292 114.5833,719.7917 C214.199,788.3115 238.174,810.5281 350.5208,855.2083 C379.1052,866.576 405.4317,874.0748 434.6785,880.7262 " fill="none" id="usr-to-Rate_book" style="stroke:#2FA4E7;stroke-width:3.125;"/><polygon fill="#2FA4E7" points="440.7729,882.1122,432.5553,875.9703,435.6943,880.9572,430.7073,884.0961,440.7729,882.1122" style="stroke:#2FA4E7;stroke-width:3.125;"/></g><!--link adm to M_store--><g id="link_adm_M_store"><path d="M290.8042,267.7219 C324.426,263.2927 381.6765,255.7507 434.5129,248.7903 " fill="none" id="adm-to-M_store" style="stroke:#2FA4E7;stroke-width:3.125;"/><polygon fill="#2FA4E7" points="440.7094,247.974,430.8705,245.0674,435.5457,248.6542,431.9589,253.3294,440.7094,247.974" style="stroke:#2FA4E7;stroke-width:3.125;"/></g><!--link adm to M_book--><g id="link_adm_M_book"><path d="M290.8042,274.9813 C328.5656,281.6146 397.7942,293.7739 453.514,303.5614 " fill="none" id="adm-to-M_book" style="stroke:#2FA4E7;stroke-width:3.125;"/><polygon fill="#2FA4E7" points="459.6698,304.6427,451.157,298.9169,454.54,303.7416,449.7153,307.1246,459.6698,304.6427" style="stroke:#2FA4E7;stroke-width:3.125;"/></g><!--link mgr to M_inv--><g id="link_mgr_M_inv"><path d="M179.3542,404.1667 C226.0573,404.1667 310.2979,404.1667 387.401,404.1667 " fill="none" id="mgr-to-M_inv" style="stroke:#2FA4E7;stroke-width:3.125;"/><polygon fill="#2FA4E7" points="393.651,404.1667,384.276,400,388.4427,404.1667,384.276,408.3333,393.651,404.1667" style="stroke:#2FA4E7;stroke-width:3.125;"/></g><!--SRC=[TL9jYnCn4FwUNp7UbofqwnyGuJoH4on2zVIBKD9aRdTeDYcPR9T3_UzENlOgM0jRyaoUcSapywpWJ3nf1umfaUzPlKW3ZWW6u-HG-ovCoP57DP2LA4NZKF6H_4b7FS91csCVm-JjNN0XmZnGGgKSFYP80IBrGm9B4KsYu9NI9WdhrexaGJDeExRGLdlTOyp1iOyj-C0rCd5KIlxWpQ-kA_VoLP0ho2ytqBvt2Ez2EDvF1_YfV4W8Dn-a3jDuScGeFQrXDPPEAp3Qmq4a1SyYBQA57-LDB8MiZZQF1C8ZtEqUtaCuOTHP0czkCicd_20qcX5UVWeza7yjatfLH4rfk5nMOULPy4L48HVITiyP_CEx9_wB2n_z6RsSdbeI-VFLb5jZP0cfiRGnLrcVemXT-eTehvA-4m-EE2syMV25-8rmBW-irxlzGSx_Lx7JnLMLgnDUfr_gRIlXjshR-pfWSujKrCw5MVOancg9JJQly-wgkZLWCfkyk21EhXwIL6yNYt7kCwDpTPDYe7tkfUG0cyq55yDrtTjbdnKimrrGdUA2sgmgV9vDWy_oIwkQK4rmmVK-kxjYsVSV]--></g></svg>