<?xml version="1.0" encoding="us-ascii" standalone="no"?><svg xmlns="http://www.w3.org/2000/svg" xmlns:xlink="http://www.w3.org/1999/xlink" contentStyleType="text/css" height="758.3333px" preserveAspectRatio="none" style="width:965px;height:758px;background:#FFFFFF;" version="1.1" viewBox="0 0 965 758" width="965.625px" zoomAndPan="magnify"><defs><linearGradient id="g1wf9oj3d8ie3v0" x1="50%" x2="50%" y1="0%" y2="100%"><stop offset="0%" stop-color="#2FA4E7"/><stop offset="100%" stop-color="#2683B9"/></linearGradient></defs><g><!--class User--><g id="elem_User"><rect codeLine="9" fill="none" height="169.6126" id="User" rx="4.1667" ry="4.1667" style="stroke:#2FA4E7;stroke-width:1.0416666666666667;" width="185.4167" x="528.125" y="17.7083"/><rect fill="url(#g1wf9oj3d8ie3v0)" height="34.1715" rx="4.1667" ry="4.1667" style="stroke:url(#g1wf9oj3d8ie3v0);stroke-width:1.0416666666666667;" width="185.4167" x="528.125" y="17.7083"/><rect fill="url(#g1wf9oj3d8ie3v0)" height="4.1667" style="stroke:url(#g1wf9oj3d8ie3v0);stroke-width:1.0416666666666667;" width="185.4167" x="528.125" y="47.7132"/><rect codeLine="9" fill="none" height="169.6126" id="User" rx="4.1667" ry="4.1667" style="stroke:#2FA4E7;stroke-width:1.0416666666666667;" width="185.4167" x="528.125" y="17.7083"/><text fill="#343A40" font-family="Verdana" font-size="11.4583" lengthAdjust="spacing" textLength="27.0833" x="607.2917" y="38.7609">User</text><line style="stroke:#2FA4E7;stroke-width:1.0416666666666667;" x1="529.1667" x2="712.5" y1="51.8799" y2="51.8799"/><ellipse cx="539.5833" cy="69.4865" fill="none" rx="3.125" ry="3.125" style="stroke:#2683B9;stroke-width:1.0416666666666667;"/><text fill="#343A40" font-family="Verdana" font-size="11.4583" lengthAdjust="spacing" textLength="148.9583" x="553.125" y="71.8908">id : number &#171;generated&#187;</text><line style="stroke:#2FA4E7;stroke-width:1.0416666666666667;" x1="529.1667" x2="712.5" y1="83.9681" y2="83.9681"/><ellipse cx="539.5833" cy="101.5747" fill="none" rx="3.125" ry="3.125" style="stroke:#2683B9;stroke-width:1.0416666666666667;"/><text fill="#343A40" font-family="Verdana" font-size="11.4583" lengthAdjust="spacing" textLength="95.8333" x="553.125" y="103.979">username : text</text><ellipse cx="539.5833" cy="125.3296" fill="none" rx="3.125" ry="3.125" style="stroke:#2683B9;stroke-width:1.0416666666666667;"/><text fill="#343A40" font-family="Verdana" font-size="11.4583" lengthAdjust="spacing" textLength="125" x="553.125" y="127.7339">password_hash : text</text><ellipse cx="539.5833" cy="149.0845" fill="none" rx="3.125" ry="3.125" style="stroke:#2683B9;stroke-width:1.0416666666666667;"/><text fill="#343A40" font-family="Verdana" font-size="11.4583" lengthAdjust="spacing" textLength="56.25" x="553.125" y="151.4887">salt : text</text><ellipse cx="539.5833" cy="172.8394" fill="none" rx="3.125" ry="3.125" style="stroke:#2683B9;stroke-width:1.0416666666666667;"/><text fill="#343A40" font-family="Verdana" font-size="11.4583" lengthAdjust="spacing" textLength="64.5833" x="553.125" y="175.2436">role: enum</text></g><!--class Wishlist--><g id="elem_Wishlist"><rect codeLine="18" fill="none" height="145.8577" id="Wishlist" rx="4.1667" ry="4.1667" style="stroke:#2FA4E7;stroke-width:1.0416666666666667;" width="185.4167" x="767.7083" y="297.3958"/><rect fill="url(#g1wf9oj3d8ie3v0)" height="34.1715" rx="4.1667" ry="4.1667" style="stroke:url(#g1wf9oj3d8ie3v0);stroke-width:1.0416666666666667;" width="185.4167" x="767.7083" y="297.3958"/><rect fill="url(#g1wf9oj3d8ie3v0)" height="4.1667" style="stroke:url(#g1wf9oj3d8ie3v0);stroke-width:1.0416666666666667;" width="185.4167" x="767.7083" y="327.4007"/><rect codeLine="18" fill="none" height="145.8577" id="Wishlist" rx="4.1667" ry="4.1667" style="stroke:#2FA4E7;stroke-width:1.0416666666666667;" width="185.4167" x="767.7083" y="297.3958"/><text fill="#343A40" font-family="Verdana" font-size="11.4583" lengthAdjust="spacing" textLength="44.7917" x="838.0208" y="318.4484">Wishlist</text><line style="stroke:#2FA4E7;stroke-width:1.0416666666666667;" x1="768.75" x2="952.0833" y1="331.5674" y2="331.5674"/><ellipse cx="779.1667" cy="349.174" fill="none" rx="3.125" ry="3.125" style="stroke:#2683B9;stroke-width:1.0416666666666667;"/><text fill="#343A40" font-family="Verdana" font-size="11.4583" lengthAdjust="spacing" textLength="148.9583" x="792.7083" y="351.5783">id : number &#171;generated&#187;</text><line style="stroke:#2FA4E7;stroke-width:1.0416666666666667;" x1="768.75" x2="952.0833" y1="363.6556" y2="363.6556"/><ellipse cx="779.1667" cy="381.2622" fill="none" rx="3.125" ry="3.125" style="stroke:#2683B9;stroke-width:1.0416666666666667;"/><text fill="#343A40" font-family="Verdana" font-size="11.4583" lengthAdjust="spacing" textLength="132.2917" x="792.7083" y="383.6665">user_id : number &#171;FK&#187;</text><ellipse cx="779.1667" cy="405.0171" fill="none" rx="3.125" ry="3.125" style="stroke:#2683B9;stroke-width:1.0416666666666667;"/><text fill="#343A40" font-family="Verdana" font-size="11.4583" lengthAdjust="spacing" textLength="129.1667" x="792.7083" y="407.4214">created_at : datetime</text><ellipse cx="779.1667" cy="428.772" fill="none" rx="3.125" ry="3.125" style="stroke:#2683B9;stroke-width:1.0416666666666667;"/><text fill="#343A40" font-family="Verdana" font-size="11.4583" lengthAdjust="spacing" textLength="100" x="792.7083" y="431.1762">description : text</text></g><!--class WishlistItem--><g id="elem_WishlistItem"><rect codeLine="26" fill="none" height="145.8577" id="WishlistItem" rx="4.1667" ry="4.1667" style="stroke:#2FA4E7;stroke-width:1.0416666666666667;" width="185.4167" x="751.0417" y="577.0833"/><rect fill="url(#g1wf9oj3d8ie3v0)" height="34.1715" rx="4.1667" ry="4.1667" style="stroke:url(#g1wf9oj3d8ie3v0);stroke-width:1.0416666666666667;" width="185.4167" x="751.0417" y="577.0833"/><rect fill="url(#g1wf9oj3d8ie3v0)" height="4.1667" style="stroke:url(#g1wf9oj3d8ie3v0);stroke-width:1.0416666666666667;" width="185.4167" x="751.0417" y="607.0882"/><rect codeLine="26" fill="none" height="145.8577" id="WishlistItem" rx="4.1667" ry="4.1667" style="stroke:#2FA4E7;stroke-width:1.0416666666666667;" width="185.4167" x="751.0417" y="577.0833"/><text fill="#343A40" font-family="Verdana" font-size="11.4583" lengthAdjust="spacing" textLength="71.875" x="807.8125" y="598.1359">WishlistItem</text><line style="stroke:#2FA4E7;stroke-width:1.0416666666666667;" x1="752.0833" x2="935.4167" y1="611.2549" y2="611.2549"/><ellipse cx="762.5" cy="628.8615" fill="none" rx="3.125" ry="3.125" style="stroke:#2683B9;stroke-width:1.0416666666666667;"/><text fill="#343A40" font-family="Verdana" font-size="11.4583" lengthAdjust="spacing" textLength="148.9583" x="776.0417" y="631.2658">id : number &#171;generated&#187;</text><line style="stroke:#2FA4E7;stroke-width:1.0416666666666667;" x1="752.0833" x2="935.4167" y1="643.3431" y2="643.3431"/><ellipse cx="762.5" cy="660.9497" fill="none" rx="3.125" ry="3.125" style="stroke:#2683B9;stroke-width:1.0416666666666667;"/><text fill="#343A40" font-family="Verdana" font-size="11.4583" lengthAdjust="spacing" textLength="148.9583" x="776.0417" y="663.354">wishlist_id : number &#171;FK&#187;</text><ellipse cx="762.5" cy="684.7046" fill="none" rx="3.125" ry="3.125" style="stroke:#2683B9;stroke-width:1.0416666666666667;"/><text fill="#343A40" font-family="Verdana" font-size="11.4583" lengthAdjust="spacing" textLength="134.375" x="776.0417" y="687.1089">book_id : number &#171;FK&#187;</text><ellipse cx="762.5" cy="708.4595" fill="none" rx="3.125" ry="3.125" style="stroke:#2683B9;stroke-width:1.0416666666666667;"/><text fill="#343A40" font-family="Verdana" font-size="11.4583" lengthAdjust="spacing" textLength="86.4583" x="776.0417" y="710.8637">priority : enum</text></g><!--class Order--><g id="elem_Order"><rect codeLine="34" fill="none" height="169.6126" id="Order" rx="4.1667" ry="4.1667" style="stroke:#2FA4E7;stroke-width:1.0416666666666667;" width="185.4167" x="250" y="285.4167"/><rect fill="url(#g1wf9oj3d8ie3v0)" height="34.1715" rx="4.1667" ry="4.1667" style="stroke:url(#g1wf9oj3d8ie3v0);stroke-width:1.0416666666666667;" width="185.4167" x="250" y="285.4167"/><rect fill="url(#g1wf9oj3d8ie3v0)" height="4.1667" style="stroke:url(#g1wf9oj3d8ie3v0);stroke-width:1.0416666666666667;" width="185.4167" x="250" y="315.4215"/><rect codeLine="34" fill="none" height="169.6126" id="Order" rx="4.1667" ry="4.1667" style="stroke:#2FA4E7;stroke-width:1.0416666666666667;" width="185.4167" x="250" y="285.4167"/><text fill="#343A40" font-family="Verdana" font-size="11.4583" lengthAdjust="spacing" textLength="33.3333" x="326.0417" y="306.4692">Order</text><line style="stroke:#2FA4E7;stroke-width:1.0416666666666667;" x1="251.0417" x2="434.375" y1="319.5882" y2="319.5882"/><ellipse cx="261.4583" cy="337.1948" fill="none" rx="3.125" ry="3.125" style="stroke:#2683B9;stroke-width:1.0416666666666667;"/><text fill="#343A40" font-family="Verdana" font-size="11.4583" lengthAdjust="spacing" textLength="148.9583" x="275" y="339.5991">id : number &#171;generated&#187;</text><line style="stroke:#2FA4E7;stroke-width:1.0416666666666667;" x1="251.0417" x2="434.375" y1="351.6764" y2="351.6764"/><ellipse cx="261.4583" cy="369.283" fill="none" rx="3.125" ry="3.125" style="stroke:#2683B9;stroke-width:1.0416666666666667;"/><text fill="#343A40" font-family="Verdana" font-size="11.4583" lengthAdjust="spacing" textLength="132.2917" x="275" y="371.6873">user_id : number &#171;FK&#187;</text><ellipse cx="261.4583" cy="393.0379" fill="none" rx="3.125" ry="3.125" style="stroke:#2683B9;stroke-width:1.0416666666666667;"/><text fill="#343A40" font-family="Verdana" font-size="11.4583" lengthAdjust="spacing" textLength="129.1667" x="275" y="395.4422">created_at : datetime</text><ellipse cx="261.4583" cy="416.7928" fill="none" rx="3.125" ry="3.125" style="stroke:#2683B9;stroke-width:1.0416666666666667;"/><text fill="#343A40" font-family="Verdana" font-size="11.4583" lengthAdjust="spacing" textLength="118.75" x="275" y="419.1971">total_price : number</text><ellipse cx="261.4583" cy="440.5477" fill="none" rx="3.125" ry="3.125" style="stroke:#2683B9;stroke-width:1.0416666666666667;"/><text fill="#343A40" font-family="Verdana" font-size="11.4583" lengthAdjust="spacing" textLength="76.0417" x="275" y="442.952">state : enum</text></g><!--class OrderItem--><g id="elem_OrderItem"><rect codeLine="43" fill="none" height="193.3675" id="OrderItem" rx="4.1667" ry="4.1667" style="stroke:#2FA4E7;stroke-width:1.0416666666666667;" width="201.0417" x="244.2708" y="553.125"/><rect fill="url(#g1wf9oj3d8ie3v0)" height="34.1715" rx="4.1667" ry="4.1667" style="stroke:url(#g1wf9oj3d8ie3v0);stroke-width:1.0416666666666667;" width="201.0417" x="244.2708" y="553.125"/><rect fill="url(#g1wf9oj3d8ie3v0)" height="4.1667" style="stroke:url(#g1wf9oj3d8ie3v0);stroke-width:1.0416666666666667;" width="201.0417" x="244.2708" y="583.1299"/><rect codeLine="43" fill="none" height="193.3675" id="OrderItem" rx="4.1667" ry="4.1667" style="stroke:#2FA4E7;stroke-width:1.0416666666666667;" width="201.0417" x="244.2708" y="553.125"/><text fill="#343A40" font-family="Verdana" font-size="11.4583" lengthAdjust="spacing" textLength="60.4167" x="314.5833" y="574.1776">OrderItem</text><line style="stroke:#2FA4E7;stroke-width:1.0416666666666667;" x1="245.3125" x2="444.2708" y1="587.2965" y2="587.2965"/><ellipse cx="255.7292" cy="604.9032" fill="none" rx="3.125" ry="3.125" style="stroke:#2683B9;stroke-width:1.0416666666666667;"/><text fill="#343A40" font-family="Verdana" font-size="11.4583" lengthAdjust="spacing" textLength="148.9583" x="269.2708" y="607.3074">id : number &#171;generated&#187;</text><line style="stroke:#2FA4E7;stroke-width:1.0416666666666667;" x1="245.3125" x2="444.2708" y1="619.3848" y2="619.3848"/><ellipse cx="255.7292" cy="636.9914" fill="none" rx="3.125" ry="3.125" style="stroke:#2683B9;stroke-width:1.0416666666666667;"/><text fill="#343A40" font-family="Verdana" font-size="11.4583" lengthAdjust="spacing" textLength="137.5" x="269.2708" y="639.3957">order_id : number &#171;FK&#187;</text><ellipse cx="255.7292" cy="660.7463" fill="none" rx="3.125" ry="3.125" style="stroke:#2683B9;stroke-width:1.0416666666666667;"/><text fill="#343A40" font-family="Verdana" font-size="11.4583" lengthAdjust="spacing" textLength="134.375" x="269.2708" y="663.1505">book_id : number &#171;FK&#187;</text><ellipse cx="255.7292" cy="684.5011" fill="none" rx="3.125" ry="3.125" style="stroke:#2683B9;stroke-width:1.0416666666666667;"/><text fill="#343A40" font-family="Verdana" font-size="11.4583" lengthAdjust="spacing" textLength="164.5833" x="269.2708" y="686.9054">bookstore_id : number &#171;FK&#187;</text><ellipse cx="255.7292" cy="708.256" fill="none" rx="3.125" ry="3.125" style="stroke:#2683B9;stroke-width:1.0416666666666667;"/><text fill="#343A40" font-family="Verdana" font-size="11.4583" lengthAdjust="spacing" textLength="146.875" x="269.2708" y="710.6603">purchase_price : number</text><ellipse cx="255.7292" cy="732.0109" fill="none" rx="3.125" ry="3.125" style="stroke:#2683B9;stroke-width:1.0416666666666667;"/><text fill="#343A40" font-family="Verdana" font-size="11.4583" lengthAdjust="spacing" textLength="105.2083" x="269.2708" y="734.4152">quantity : number</text></g><!--class Book--><g id="elem_Book"><rect codeLine="53" fill="none" height="240.8773" id="Book" rx="4.1667" ry="4.1667" style="stroke:#2FA4E7;stroke-width:1.0416666666666667;" width="185.4167" x="471.875" y="250"/><rect fill="url(#g1wf9oj3d8ie3v0)" height="34.1715" rx="4.1667" ry="4.1667" style="stroke:url(#g1wf9oj3d8ie3v0);stroke-width:1.0416666666666667;" width="185.4167" x="471.875" y="250"/><rect fill="url(#g1wf9oj3d8ie3v0)" height="4.1667" style="stroke:url(#g1wf9oj3d8ie3v0);stroke-width:1.0416666666666667;" width="185.4167" x="471.875" y="280.0049"/><rect codeLine="53" fill="none" height="240.8773" id="Book" rx="4.1667" ry="4.1667" style="stroke:#2FA4E7;stroke-width:1.0416666666666667;" width="185.4167" x="471.875" y="250"/><text fill="#343A40" font-family="Verdana" font-size="11.4583" lengthAdjust="spacing" textLength="29.1667" x="550" y="271.0526">Book</text><line style="stroke:#2FA4E7;stroke-width:1.0416666666666667;" x1="472.9167" x2="656.25" y1="284.1715" y2="284.1715"/><ellipse cx="483.3333" cy="301.7782" fill="none" rx="3.125" ry="3.125" style="stroke:#2683B9;stroke-width:1.0416666666666667;"/><text fill="#343A40" font-family="Verdana" font-size="11.4583" lengthAdjust="spacing" textLength="148.9583" x="496.875" y="304.1824">id : number &#171;generated&#187;</text><line style="stroke:#2FA4E7;stroke-width:1.0416666666666667;" x1="472.9167" x2="656.25" y1="316.2598" y2="316.2598"/><ellipse cx="483.3333" cy="333.8664" fill="none" rx="3.125" ry="3.125" style="stroke:#2683B9;stroke-width:1.0416666666666667;"/><text fill="#343A40" font-family="Verdana" font-size="11.4583" lengthAdjust="spacing" textLength="58.3333" x="496.875" y="336.2707">title : text</text><ellipse cx="483.3333" cy="357.6213" fill="none" rx="3.125" ry="3.125" style="stroke:#2683B9;stroke-width:1.0416666666666667;"/><text fill="#343A40" font-family="Verdana" font-size="11.4583" lengthAdjust="spacing" textLength="72.9167" x="496.875" y="360.0255">author : text</text><ellipse cx="483.3333" cy="381.3761" fill="none" rx="3.125" ry="3.125" style="stroke:#2683B9;stroke-width:1.0416666666666667;"/><text fill="#343A40" font-family="Verdana" font-size="11.4583" lengthAdjust="spacing" textLength="59.375" x="496.875" y="383.7804">isbn : text</text><ellipse cx="483.3333" cy="405.131" fill="none" rx="3.125" ry="3.125" style="stroke:#2683B9;stroke-width:1.0416666666666667;"/><text fill="#343A40" font-family="Verdana" font-size="11.4583" lengthAdjust="spacing" textLength="89.5833" x="496.875" y="407.5353">publisher : text</text><ellipse cx="483.3333" cy="428.8859" fill="none" rx="3.125" ry="3.125" style="stroke:#2683B9;stroke-width:1.0416666666666667;"/><text fill="#343A40" font-family="Verdana" font-size="11.4583" lengthAdjust="spacing" textLength="81.25" x="496.875" y="431.2902">genre : enum</text><ellipse cx="483.3333" cy="452.6408" fill="none" rx="3.125" ry="3.125" style="stroke:#2683B9;stroke-width:1.0416666666666667;"/><text fill="#343A40" font-family="Verdana" font-size="11.4583" lengthAdjust="spacing" textLength="100" x="496.875" y="455.0451">description : text</text><ellipse cx="483.3333" cy="476.3957" fill="none" rx="3.125" ry="3.125" style="stroke:#2683B9;stroke-width:1.0416666666666667;"/><text fill="#343A40" font-family="Verdana" font-size="11.4583" lengthAdjust="spacing" textLength="82.2917" x="496.875" y="478.7999">price: number</text></g><!--class BookReview--><g id="elem_BookReview"><rect codeLine="65" fill="none" height="169.6126" id="BookReview" rx="4.1667" ry="4.1667" style="stroke:#2FA4E7;stroke-width:1.0416666666666667;" width="185.4167" x="497.9167" y="565.1042"/><rect fill="url(#g1wf9oj3d8ie3v0)" height="34.1715" rx="4.1667" ry="4.1667" style="stroke:url(#g1wf9oj3d8ie3v0);stroke-width:1.0416666666666667;" width="185.4167" x="497.9167" y="565.1042"/><rect fill="url(#g1wf9oj3d8ie3v0)" height="4.1667" style="stroke:url(#g1wf9oj3d8ie3v0);stroke-width:1.0416666666666667;" width="185.4167" x="497.9167" y="595.109"/><rect codeLine="65" fill="none" height="169.6126" id="BookReview" rx="4.1667" ry="4.1667" style="stroke:#2FA4E7;stroke-width:1.0416666666666667;" width="185.4167" x="497.9167" y="565.1042"/><text fill="#343A40" font-family="Verdana" font-size="11.4583" lengthAdjust="spacing" textLength="72.9167" x="554.1667" y="586.1567">BookReview</text><line style="stroke:#2FA4E7;stroke-width:1.0416666666666667;" x1="498.9583" x2="682.2917" y1="599.2757" y2="599.2757"/><ellipse cx="509.375" cy="616.8823" fill="none" rx="3.125" ry="3.125" style="stroke:#2683B9;stroke-width:1.0416666666666667;"/><text fill="#343A40" font-family="Verdana" font-size="11.4583" lengthAdjust="spacing" textLength="148.9583" x="522.9167" y="619.2866">id : number &#171;generated&#187;</text><line style="stroke:#2FA4E7;stroke-width:1.0416666666666667;" x1="498.9583" x2="682.2917" y1="631.3639" y2="631.3639"/><ellipse cx="509.375" cy="648.9705" fill="none" rx="3.125" ry="3.125" style="stroke:#2683B9;stroke-width:1.0416666666666667;"/><text fill="#343A40" font-family="Verdana" font-size="11.4583" lengthAdjust="spacing" textLength="134.375" x="522.9167" y="651.3748">book_id : number &#171;FK&#187;</text><ellipse cx="509.375" cy="672.7254" fill="none" rx="3.125" ry="3.125" style="stroke:#2683B9;stroke-width:1.0416666666666667;"/><text fill="#343A40" font-family="Verdana" font-size="11.4583" lengthAdjust="spacing" textLength="132.2917" x="522.9167" y="675.1297">user_id : number &#171;FK&#187;</text><ellipse cx="509.375" cy="696.4803" fill="none" rx="3.125" ry="3.125" style="stroke:#2683B9;stroke-width:1.0416666666666667;"/><text fill="#343A40" font-family="Verdana" font-size="11.4583" lengthAdjust="spacing" textLength="100" x="522.9167" y="698.8846">description : text</text><ellipse cx="509.375" cy="720.2352" fill="none" rx="3.125" ry="3.125" style="stroke:#2683B9;stroke-width:1.0416666666666667;"/><text fill="#343A40" font-family="Verdana" font-size="11.4583" lengthAdjust="spacing" textLength="79.1667" x="522.9167" y="722.6395">rating : enum</text></g><!--class BookStore--><g id="elem_BookStore"><rect codeLine="74" fill="none" height="193.3675" id="BookStore" rx="4.1667" ry="4.1667" style="stroke:#2FA4E7;stroke-width:1.0416666666666667;" width="195.8333" x="17.7083" y="273.4375"/><rect fill="url(#g1wf9oj3d8ie3v0)" height="34.1715" rx="4.1667" ry="4.1667" style="stroke:url(#g1wf9oj3d8ie3v0);stroke-width:1.0416666666666667;" width="195.8333" x="17.7083" y="273.4375"/><rect fill="url(#g1wf9oj3d8ie3v0)" height="4.1667" style="stroke:url(#g1wf9oj3d8ie3v0);stroke-width:1.0416666666666667;" width="195.8333" x="17.7083" y="303.4424"/><rect codeLine="74" fill="none" height="193.3675" id="BookStore" rx="4.1667" ry="4.1667" style="stroke:#2FA4E7;stroke-width:1.0416666666666667;" width="195.8333" x="17.7083" y="273.4375"/><text fill="#343A40" font-family="Verdana" font-size="11.4583" lengthAdjust="spacing" textLength="61.4583" x="84.8958" y="294.4901">BookStore</text><line style="stroke:#2FA4E7;stroke-width:1.0416666666666667;" x1="18.75" x2="212.5" y1="307.609" y2="307.609"/><ellipse cx="29.1667" cy="325.2157" fill="none" rx="3.125" ry="3.125" style="stroke:#2683B9;stroke-width:1.0416666666666667;"/><text fill="#343A40" font-family="Verdana" font-size="11.4583" lengthAdjust="spacing" textLength="148.9583" x="42.7083" y="327.6199">id : number &#171;generated&#187;</text><line style="stroke:#2FA4E7;stroke-width:1.0416666666666667;" x1="18.75" x2="212.5" y1="339.6973" y2="339.6973"/><ellipse cx="29.1667" cy="357.3039" fill="none" rx="3.125" ry="3.125" style="stroke:#2683B9;stroke-width:1.0416666666666667;"/><text fill="#343A40" font-family="Verdana" font-size="11.4583" lengthAdjust="spacing" textLength="153.125" x="42.7083" y="359.7082">address_id : number &#171;FK&#187;</text><ellipse cx="29.1667" cy="381.0588" fill="none" rx="3.125" ry="3.125" style="stroke:#2683B9;stroke-width:1.0416666666666667;"/><text fill="#343A40" font-family="Verdana" font-size="11.4583" lengthAdjust="spacing" textLength="159.375" x="42.7083" y="383.463">manager_id : number &#171;FK&#187;</text><ellipse cx="29.1667" cy="404.8136" fill="none" rx="3.125" ry="3.125" style="stroke:#2683B9;stroke-width:1.0416666666666667;"/><text fill="#343A40" font-family="Verdana" font-size="11.4583" lengthAdjust="spacing" textLength="69.7917" x="42.7083" y="407.2179">name : text</text><ellipse cx="29.1667" cy="428.5685" fill="none" rx="3.125" ry="3.125" style="stroke:#2683B9;stroke-width:1.0416666666666667;"/><text fill="#343A40" font-family="Verdana" font-size="11.4583" lengthAdjust="spacing" textLength="125" x="42.7083" y="430.9728">phone_number : text</text><ellipse cx="29.1667" cy="452.3234" fill="none" rx="3.125" ry="3.125" style="stroke:#2683B9;stroke-width:1.0416666666666667;"/><text fill="#343A40" font-family="Verdana" font-size="11.4583" lengthAdjust="spacing" textLength="68.75" x="42.7083" y="454.7277">email : text</text></g><!--class Address--><g id="elem_Address"><rect codeLine="84" fill="none" height="193.3675" id="Address" rx="4.1667" ry="4.1667" style="stroke:#2FA4E7;stroke-width:1.0416666666666667;" width="185.4167" x="21.875" y="553.125"/><rect fill="url(#g1wf9oj3d8ie3v0)" height="34.1715" rx="4.1667" ry="4.1667" style="stroke:url(#g1wf9oj3d8ie3v0);stroke-width:1.0416666666666667;" width="185.4167" x="21.875" y="553.125"/><rect fill="url(#g1wf9oj3d8ie3v0)" height="4.1667" style="stroke:url(#g1wf9oj3d8ie3v0);stroke-width:1.0416666666666667;" width="185.4167" x="21.875" y="583.1299"/><rect codeLine="84" fill="none" height="193.3675" id="Address" rx="4.1667" ry="4.1667" style="stroke:#2FA4E7;stroke-width:1.0416666666666667;" width="185.4167" x="21.875" y="553.125"/><text fill="#343A40" font-family="Verdana" font-size="11.4583" lengthAdjust="spacing" textLength="47.9167" x="90.625" y="574.1776">Address</text><line style="stroke:#2FA4E7;stroke-width:1.0416666666666667;" x1="22.9167" x2="206.25" y1="587.2965" y2="587.2965"/><ellipse cx="33.3333" cy="604.9032" fill="none" rx="3.125" ry="3.125" style="stroke:#2683B9;stroke-width:1.0416666666666667;"/><text fill="#343A40" font-family="Verdana" font-size="11.4583" lengthAdjust="spacing" textLength="148.9583" x="46.875" y="607.3074">id : number &#171;generated&#187;</text><line style="stroke:#2FA4E7;stroke-width:1.0416666666666667;" x1="22.9167" x2="206.25" y1="619.3848" y2="619.3848"/><ellipse cx="33.3333" cy="636.9914" fill="none" rx="3.125" ry="3.125" style="stroke:#2683B9;stroke-width:1.0416666666666667;"/><text fill="#343A40" font-family="Verdana" font-size="11.4583" lengthAdjust="spacing" textLength="70.8333" x="46.875" y="639.3957">street : text</text><ellipse cx="33.3333" cy="660.7463" fill="none" rx="3.125" ry="3.125" style="stroke:#2683B9;stroke-width:1.0416666666666667;"/><text fill="#343A40" font-family="Verdana" font-size="11.4583" lengthAdjust="spacing" textLength="122.9167" x="46.875" y="663.1505">street_number : text</text><ellipse cx="33.3333" cy="684.5011" fill="none" rx="3.125" ry="3.125" style="stroke:#2683B9;stroke-width:1.0416666666666667;"/><text fill="#343A40" font-family="Verdana" font-size="11.4583" lengthAdjust="spacing" textLength="56.25" x="46.875" y="686.9054">city : text</text><ellipse cx="33.3333" cy="708.256" fill="none" rx="3.125" ry="3.125" style="stroke:#2683B9;stroke-width:1.0416666666666667;"/><text fill="#343A40" font-family="Verdana" font-size="11.4583" lengthAdjust="spacing" textLength="65.625" x="46.875" y="710.6603">state : text</text><ellipse cx="33.3333" cy="732.0109" fill="none" rx="3.125" ry="3.125" style="stroke:#2683B9;stroke-width:1.0416666666666667;"/><text fill="#343A40" font-family="Verdana" font-size="11.4583" lengthAdjust="spacing" textLength="106.25" x="46.875" y="734.4152">postal_code : text</text></g><!--class InventoryItem--><g id="elem_InventoryItem"><rect codeLine="94" fill="none" height="169.6126" id="InventoryItem" rx="4.1667" ry="4.1667" style="stroke:#2FA4E7;stroke-width:1.0416666666666667;" width="201.0417" x="198.4375" y="17.7083"/><rect fill="url(#g1wf9oj3d8ie3v0)" height="34.1715" rx="4.1667" ry="4.1667" style="stroke:url(#g1wf9oj3d8ie3v0);stroke-width:1.0416666666666667;" width="201.0417" x="198.4375" y="17.7083"/><rect fill="url(#g1wf9oj3d8ie3v0)" height="4.1667" style="stroke:url(#g1wf9oj3d8ie3v0);stroke-width:1.0416666666666667;" width="201.0417" x="198.4375" y="47.7132"/><rect codeLine="94" fill="none" height="169.6126" id="InventoryItem" rx="4.1667" ry="4.1667" style="stroke:#2FA4E7;stroke-width:1.0416666666666667;" width="201.0417" x="198.4375" y="17.7083"/><text fill="#343A40" font-family="Verdana" font-size="11.4583" lengthAdjust="spacing" textLength="83.3333" x="257.2917" y="38.7609">InventoryItem</text><line style="stroke:#2FA4E7;stroke-width:1.0416666666666667;" x1="199.4792" x2="398.4375" y1="51.8799" y2="51.8799"/><ellipse cx="209.8958" cy="69.4865" fill="none" rx="3.125" ry="3.125" style="stroke:#2683B9;stroke-width:1.0416666666666667;"/><text fill="#343A40" font-family="Verdana" font-size="11.4583" lengthAdjust="spacing" textLength="148.9583" x="223.4375" y="71.8908">id : number &#171;generated&#187;</text><line style="stroke:#2FA4E7;stroke-width:1.0416666666666667;" x1="199.4792" x2="398.4375" y1="83.9681" y2="83.9681"/><ellipse cx="209.8958" cy="101.5747" fill="none" rx="3.125" ry="3.125" style="stroke:#2683B9;stroke-width:1.0416666666666667;"/><text fill="#343A40" font-family="Verdana" font-size="11.4583" lengthAdjust="spacing" textLength="134.375" x="223.4375" y="103.979">book_id : number &#171;FK&#187;</text><ellipse cx="209.8958" cy="125.3296" fill="none" rx="3.125" ry="3.125" style="stroke:#2683B9;stroke-width:1.0416666666666667;"/><text fill="#343A40" font-family="Verdana" font-size="11.4583" lengthAdjust="spacing" textLength="164.5833" x="223.4375" y="127.7339">bookstore_id : number &#171;FK&#187;</text><ellipse cx="209.8958" cy="149.0845" fill="none" rx="3.125" ry="3.125" style="stroke:#2683B9;stroke-width:1.0416666666666667;"/><text fill="#343A40" font-family="Verdana" font-size="11.4583" lengthAdjust="spacing" textLength="104.1667" x="223.4375" y="151.4887">in_stock : number</text><ellipse cx="209.8958" cy="172.8394" fill="none" rx="3.125" ry="3.125" style="stroke:#2683B9;stroke-width:1.0416666666666667;"/><text fill="#343A40" font-family="Verdana" font-size="11.4583" lengthAdjust="spacing" textLength="131.25" x="223.4375" y="175.2436">last_restock: datetime</text></g><!--link User to Wishlist--><g id="link_User_Wishlist"><path codeLine="103" d="M698.4375,196.175 C698.4375,274.7167 698.4375,370.8333 698.4375,370.8333 C698.4375,370.8333 712.6594,370.8333 748.851,370.8333 " fill="none" id="User-Wishlist" style="stroke:#2FA4E7;stroke-width:3.125;stroke-dasharray:7.0,7.0;"/><line style="stroke:#2FA4E7;stroke-width:3.125;" x1="694.2708" x2="702.6042" y1="192.0083" y2="192.0083"/><line style="stroke:#2FA4E7;stroke-width:3.125;" x1="694.2708" x2="702.6042" y1="195.1333" y2="195.1333"/><line style="stroke:#2FA4E7;stroke-width:3.125;" x1="698.4375" x2="698.4375" y1="196.175" y2="187.8417"/><line style="stroke:#2FA4E7;stroke-width:3.125;" x1="759.2677" x2="767.601" y1="370.8333" y2="364.5833"/><line style="stroke:#2FA4E7;stroke-width:3.125;" x1="759.2677" x2="767.601" y1="370.8333" y2="377.0833"/><line style="stroke:#2FA4E7;stroke-width:3.125;" x1="759.2677" x2="767.601" y1="370.8333" y2="370.8333"/><ellipse cx="753.0177" cy="370.8333" fill="none" rx="4.1667" ry="4.1667" style="stroke:#2FA4E7;stroke-width:3.125;"/></g><!--link User to Order--><g id="link_User_Order"><path codeLine="104" d="M519.7354,103.125 C466.0938,103.125 417.4479,103.125 417.4479,103.125 C417.4479,103.125 417.4479,188.4187 417.4479,266.6552 " fill="none" id="User-Order" style="stroke:#2FA4E7;stroke-width:3.125;stroke-dasharray:7.0,7.0;"/><line style="stroke:#2FA4E7;stroke-width:3.125;" x1="523.9021" x2="523.9021" y1="98.9583" y2="107.2917"/><line style="stroke:#2FA4E7;stroke-width:3.125;" x1="520.7771" x2="520.7771" y1="98.9583" y2="107.2917"/><line style="stroke:#2FA4E7;stroke-width:3.125;" x1="519.7354" x2="528.0688" y1="103.125" y2="103.125"/><line style="stroke:#2FA4E7;stroke-width:3.125;" x1="417.4479" x2="423.6979" y1="277.0719" y2="285.4052"/><line style="stroke:#2FA4E7;stroke-width:3.125;" x1="417.4479" x2="411.1979" y1="277.0719" y2="285.4052"/><line style="stroke:#2FA4E7;stroke-width:3.125;" x1="417.4479" x2="417.4479" y1="277.0719" y2="285.4052"/><ellipse cx="417.4479" cy="270.8219" fill="none" rx="4.1667" ry="4.1667" style="stroke:#2FA4E7;stroke-width:3.125;"/></g><!--link User to BookReview--><g id="link_User_BookReview"><path codeLine="105" d="M670.3125,195.8677 C670.3125,298.5698 670.3125,443.3292 670.3125,546.1208 " fill="none" id="User-BookReview" style="stroke:#2FA4E7;stroke-width:3.125;stroke-dasharray:7.0,7.0;"/><line style="stroke:#2FA4E7;stroke-width:3.125;" x1="666.1458" x2="674.4792" y1="191.701" y2="191.701"/><line style="stroke:#2FA4E7;stroke-width:3.125;" x1="666.1458" x2="674.4792" y1="194.826" y2="194.826"/><line style="stroke:#2FA4E7;stroke-width:3.125;" x1="670.3125" x2="670.3125" y1="195.8677" y2="187.5344"/><line style="stroke:#2FA4E7;stroke-width:3.125;" x1="670.3125" x2="676.5625" y1="556.5375" y2="564.8708"/><line style="stroke:#2FA4E7;stroke-width:3.125;" x1="670.3125" x2="664.0625" y1="556.5375" y2="564.8708"/><line style="stroke:#2FA4E7;stroke-width:3.125;" x1="670.3125" x2="670.3125" y1="556.5375" y2="564.8708"/><ellipse cx="670.3125" cy="550.2875" fill="none" rx="4.1667" ry="4.1667" style="stroke:#2FA4E7;stroke-width:3.125;"/></g><!--link User to BookStore--><g id="link_User_BookStore"><path codeLine="106" d="M592.7083,195.9583 C592.7083,213.6687 592.7083,218.75 592.7083,218.75 C592.7083,218.75 208.5073,218.75 208.5073,218.75 C208.5073,218.75 208.5073,227.899 208.5073,257.4146 " fill="none" id="User-BookStore" style="stroke:#2FA4E7;stroke-width:3.125;stroke-dasharray:7.0,7.0;"/><line style="stroke:#2FA4E7;stroke-width:3.125;" x1="588.5417" x2="596.875" y1="191.7917" y2="191.7917"/><line style="stroke:#2FA4E7;stroke-width:3.125;" x1="588.5417" x2="596.875" y1="194.9167" y2="194.9167"/><line style="stroke:#2FA4E7;stroke-width:3.125;" x1="592.7083" x2="592.7083" y1="195.9583" y2="187.625"/><line style="stroke:#2FA4E7;stroke-width:3.125;" x1="208.5073" x2="208.5073" y1="259.4979" y2="273.0396"/><ellipse cx="208.5073" cy="259.4979" fill="none" rx="6.25" ry="6.25" style="stroke:#2FA4E7;stroke-width:3.125;"/><line style="stroke:#2FA4E7;stroke-width:3.125;" x1="214.7573" x2="202.2573" y1="268.8729" y2="268.8729"/></g><!--link Wishlist to WishlistItem--><g id="link_Wishlist_WishlistItem"><path codeLine="108" d="M852.0833,451.7656 C852.0833,492.876 852.0833,516.9521 852.0833,558.0719 " fill="none" id="Wishlist-WishlistItem" style="stroke:#2FA4E7;stroke-width:3.125;stroke-dasharray:7.0,7.0;"/><line style="stroke:#2FA4E7;stroke-width:3.125;" x1="847.9167" x2="856.25" y1="447.599" y2="447.599"/><line style="stroke:#2FA4E7;stroke-width:3.125;" x1="847.9167" x2="856.25" y1="450.724" y2="450.724"/><line style="stroke:#2FA4E7;stroke-width:3.125;" x1="852.0833" x2="852.0833" y1="451.7656" y2="443.4323"/><line style="stroke:#2FA4E7;stroke-width:3.125;" x1="852.0833" x2="858.3333" y1="568.4885" y2="576.8219"/><line style="stroke:#2FA4E7;stroke-width:3.125;" x1="852.0833" x2="845.8333" y1="568.4885" y2="576.8219"/><line style="stroke:#2FA4E7;stroke-width:3.125;" x1="852.0833" x2="852.0833" y1="568.4885" y2="576.8219"/><ellipse cx="852.0833" cy="562.2385" fill="none" rx="4.1667" ry="4.1667" style="stroke:#2FA4E7;stroke-width:3.125;"/></g><!--link Order to OrderItem--><g id="link_Order_OrderItem"><path codeLine="109" d="M373.6115,463.7 C373.6115,494.5573 373.6115,502.5583 373.6115,534.3604 " fill="none" id="Order-OrderItem" style="stroke:#2FA4E7;stroke-width:3.125;stroke-dasharray:7.0,7.0;"/><line style="stroke:#2FA4E7;stroke-width:3.125;" x1="369.4448" x2="377.7781" y1="459.5333" y2="459.5333"/><line style="stroke:#2FA4E7;stroke-width:3.125;" x1="369.4448" x2="377.7781" y1="462.6583" y2="462.6583"/><line style="stroke:#2FA4E7;stroke-width:3.125;" x1="373.6115" x2="373.6115" y1="463.7" y2="455.3667"/><line style="stroke:#2FA4E7;stroke-width:3.125;" x1="373.6115" x2="379.8615" y1="544.7771" y2="553.1104"/><line style="stroke:#2FA4E7;stroke-width:3.125;" x1="373.6115" x2="367.3615" y1="544.7771" y2="553.1104"/><line style="stroke:#2FA4E7;stroke-width:3.125;" x1="373.6115" x2="373.6115" y1="544.7771" y2="553.1104"/><ellipse cx="373.6115" cy="538.5271" fill="none" rx="4.1667" ry="4.1667" style="stroke:#2FA4E7;stroke-width:3.125;"/></g><!--link Book to BookReview--><g id="link_Book_BookReview"><path codeLine="111" d="M577.6042,499.2875 C577.6042,524.126 577.6042,522.7042 577.6042,545.975 " fill="none" id="Book-BookReview" style="stroke:#2FA4E7;stroke-width:3.125;stroke-dasharray:7.0,7.0;"/><line style="stroke:#2FA4E7;stroke-width:3.125;" x1="573.4375" x2="581.7708" y1="495.1208" y2="495.1208"/><line style="stroke:#2FA4E7;stroke-width:3.125;" x1="573.4375" x2="581.7708" y1="498.2458" y2="498.2458"/><line style="stroke:#2FA4E7;stroke-width:3.125;" x1="577.6042" x2="577.6042" y1="499.2875" y2="490.9542"/><line style="stroke:#2FA4E7;stroke-width:3.125;" x1="577.6042" x2="583.8542" y1="556.3917" y2="564.725"/><line style="stroke:#2FA4E7;stroke-width:3.125;" x1="577.6042" x2="571.3542" y1="556.3917" y2="564.725"/><line style="stroke:#2FA4E7;stroke-width:3.125;" x1="577.6042" x2="577.6042" y1="556.3917" y2="564.725"/><ellipse cx="577.6042" cy="550.1417" fill="none" rx="4.1667" ry="4.1667" style="stroke:#2FA4E7;stroke-width:3.125;"/></g><!--link Book to WishlistItem--><g id="link_Book_WishlistItem"><path codeLine="112" d="M665.749,467.7083 C715.9188,467.7083 759.375,467.7083 759.375,467.7083 C759.375,467.7083 759.375,507.4406 759.375,558.1552 " fill="none" id="Book-WishlistItem" style="stroke:#2FA4E7;stroke-width:3.125;stroke-dasharray:7.0,7.0;"/><line style="stroke:#2FA4E7;stroke-width:3.125;" x1="661.5823" x2="661.5823" y1="471.875" y2="463.5417"/><line style="stroke:#2FA4E7;stroke-width:3.125;" x1="664.7073" x2="664.7073" y1="471.875" y2="463.5417"/><line style="stroke:#2FA4E7;stroke-width:3.125;" x1="665.749" x2="657.4156" y1="467.7083" y2="467.7083"/><line style="stroke:#2FA4E7;stroke-width:3.125;" x1="759.375" x2="765.625" y1="568.5719" y2="576.9052"/><line style="stroke:#2FA4E7;stroke-width:3.125;" x1="759.375" x2="753.125" y1="568.5719" y2="576.9052"/><line style="stroke:#2FA4E7;stroke-width:3.125;" x1="759.375" x2="759.375" y1="568.5719" y2="576.9052"/><ellipse cx="759.375" cy="562.3219" fill="none" rx="4.1667" ry="4.1667" style="stroke:#2FA4E7;stroke-width:3.125;"/></g><!--link Book to OrderItem--><g id="link_Book_OrderItem"><path codeLine="113" d="M463.3771,479.1667 C445.4052,479.1667 440.3646,479.1667 440.3646,479.1667 C440.3646,479.1667 440.3646,495.7958 440.3646,534.3531 " fill="none" id="Book-OrderItem" style="stroke:#2FA4E7;stroke-width:3.125;stroke-dasharray:7.0,7.0;"/><line style="stroke:#2FA4E7;stroke-width:3.125;" x1="467.5438" x2="467.5438" y1="475" y2="483.3333"/><line style="stroke:#2FA4E7;stroke-width:3.125;" x1="464.4188" x2="464.4188" y1="475" y2="483.3333"/><line style="stroke:#2FA4E7;stroke-width:3.125;" x1="463.3771" x2="471.7104" y1="479.1667" y2="479.1667"/><line style="stroke:#2FA4E7;stroke-width:3.125;" x1="440.3646" x2="446.6146" y1="544.7698" y2="553.1031"/><line style="stroke:#2FA4E7;stroke-width:3.125;" x1="440.3646" x2="434.1146" y1="544.7698" y2="553.1031"/><line style="stroke:#2FA4E7;stroke-width:3.125;" x1="440.3646" x2="440.3646" y1="544.7698" y2="553.1031"/><ellipse cx="440.3646" cy="538.5198" fill="none" rx="4.1667" ry="4.1667" style="stroke:#2FA4E7;stroke-width:3.125;"/></g><!--link BookStore to Address--><g id="link_BookStore_Address"><path codeLine="115" d="M114.5833,482.974 C114.5833,510.5844 114.5833,516.7 114.5833,544.3281 " fill="none" id="BookStore-Address" style="stroke:#2FA4E7;stroke-width:3.125;stroke-dasharray:7.0,7.0;"/><line style="stroke:#2FA4E7;stroke-width:3.125;" x1="114.5833" x2="114.5833" y1="480.8906" y2="467.349"/><ellipse cx="114.5833" cy="480.8906" fill="none" rx="6.25" ry="6.25" style="stroke:#2FA4E7;stroke-width:3.125;"/><line style="stroke:#2FA4E7;stroke-width:3.125;" x1="108.3333" x2="120.8333" y1="471.5156" y2="471.5156"/><line style="stroke:#2FA4E7;stroke-width:3.125;" x1="118.75" x2="110.4167" y1="548.4948" y2="548.4948"/><line style="stroke:#2FA4E7;stroke-width:3.125;" x1="118.75" x2="110.4167" y1="545.3698" y2="545.3698"/><line style="stroke:#2FA4E7;stroke-width:3.125;" x1="114.5833" x2="114.5833" y1="544.3281" y2="552.6615"/></g><!--link BookStore to OrderItem--><g id="link_BookStore_OrderItem"><path codeLine="116" d="M222.049,461.4583 C271.0938,461.4583 311.8052,461.4583 311.8052,461.4583 C311.8052,461.4583 311.8052,488.0208 311.8052,534.2177 " fill="none" id="BookStore-OrderItem" style="stroke:#2FA4E7;stroke-width:3.125;stroke-dasharray:7.0,7.0;"/><line style="stroke:#2FA4E7;stroke-width:3.125;" x1="217.8823" x2="217.8823" y1="465.625" y2="457.2917"/><line style="stroke:#2FA4E7;stroke-width:3.125;" x1="221.0073" x2="221.0073" y1="465.625" y2="457.2917"/><line style="stroke:#2FA4E7;stroke-width:3.125;" x1="222.049" x2="213.7156" y1="461.4583" y2="461.4583"/><line style="stroke:#2FA4E7;stroke-width:3.125;" x1="311.8052" x2="318.0552" y1="544.6344" y2="552.9677"/><line style="stroke:#2FA4E7;stroke-width:3.125;" x1="311.8052" x2="305.5552" y1="544.6344" y2="552.9677"/><line style="stroke:#2FA4E7;stroke-width:3.125;" x1="311.8052" x2="311.8052" y1="544.6344" y2="552.9677"/><ellipse cx="311.8052" cy="538.3844" fill="none" rx="4.1667" ry="4.1667" style="stroke:#2FA4E7;stroke-width:3.125;"/></g><!--link InventoryItem to BookStore--><g id="link_InventoryItem_BookStore"><path codeLine="118" d="M203.4719,206.4271 C203.4719,233.6792 203.4719,236.9729 203.4719,265.0094 " fill="none" id="InventoryItem-BookStore" style="stroke:#2FA4E7;stroke-width:3.125;stroke-dasharray:7.0,7.0;"/><line style="stroke:#2FA4E7;stroke-width:3.125;" x1="203.4719" x2="197.2219" y1="196.0104" y2="187.6771"/><line style="stroke:#2FA4E7;stroke-width:3.125;" x1="203.4719" x2="209.7219" y1="196.0104" y2="187.6771"/><line style="stroke:#2FA4E7;stroke-width:3.125;" x1="203.4719" x2="203.4719" y1="196.0104" y2="187.6771"/><ellipse cx="203.4719" cy="202.2604" fill="none" rx="4.1667" ry="4.1667" style="stroke:#2FA4E7;stroke-width:3.125;"/><line style="stroke:#2FA4E7;stroke-width:3.125;" x1="207.6385" x2="199.3052" y1="269.176" y2="269.176"/><line style="stroke:#2FA4E7;stroke-width:3.125;" x1="207.6385" x2="199.3052" y1="266.051" y2="266.051"/><line style="stroke:#2FA4E7;stroke-width:3.125;" x1="203.4719" x2="203.4719" y1="265.0094" y2="273.3427"/></g><!--link InventoryItem to Book--><g id="link_InventoryItem_Book"><path codeLine="119" d="M324.7396,206.4521 C324.7396,244.6375 324.7396,262.5 324.7396,262.5 C324.7396,262.5 396.0281,262.5 463.5198,262.5 " fill="none" id="InventoryItem-Book" style="stroke:#2FA4E7;stroke-width:3.125;stroke-dasharray:7.0,7.0;"/><line style="stroke:#2FA4E7;stroke-width:3.125;" x1="324.7396" x2="318.4896" y1="196.0354" y2="187.7021"/><line style="stroke:#2FA4E7;stroke-width:3.125;" x1="324.7396" x2="330.9896" y1="196.0354" y2="187.7021"/><line style="stroke:#2FA4E7;stroke-width:3.125;" x1="324.7396" x2="324.7396" y1="196.0354" y2="187.7021"/><ellipse cx="324.7396" cy="202.2854" fill="none" rx="4.1667" ry="4.1667" style="stroke:#2FA4E7;stroke-width:3.125;"/><line style="stroke:#2FA4E7;stroke-width:3.125;" x1="467.6865" x2="467.6865" y1="258.3333" y2="266.6667"/><line style="stroke:#2FA4E7;stroke-width:3.125;" x1="464.5615" x2="464.5615" y1="258.3333" y2="266.6667"/><line style="stroke:#2FA4E7;stroke-width:3.125;" x1="463.5198" x2="471.8531" y1="262.5" y2="262.5"/></g><!--SRC=[fLN1Yjim4BtxAzIz51QI3mZBGbieB3qKMagFHfQ6M4IMqj4uQLZlltTa9uwSs8jDStBU6yqyZzwCFug32RMq8W2HSTkGVQ0IAX0AiBOWtShNP8s3h3IQKOFAGXPsnkqboaf4Yavx41wfz0bHIBNReg-T_kAjHt4i3K76Ft1aw2GUVWN01_6Q2V5ejDW8LrS5e7Xwse83b0Jw-Pd9rIf6r1pi9ClQ28A_5A6z3E7eKUUb36M21saf-OlUmaO0Py_UhiL_cr1Q4sYHW7mOzlLRopygX1YSorXMyoEP2YAX8IWqUpBUNGIDI7WXg6RBE9uFJKWflDzDK7iq7cFX-sPyHxtmAfPsWZn9cxC41Vsvzgw8WwOKBMgCZoUMToLIWJp2LDTgLEml6D7-fvQTsXvCNk0pvvsjdO_OrDcovb72132XSAdpwu8zK48Qmdcnx-IuzpeJA9ZI-mCE1ewpLR_JrNSiCgwBS_Fk6J52rFKptiziML9hX10cobVIoUsakDiDKte7-Jdg2aCbZHqPw4zTvTbA0o50kgewuBwWwbns3Uk6ffVfGvmkvJMCg7fn1txqU5eqJlynCiRbJAlTO5Yiv9t5tOb4iXfOP_mCYAPPh_shkAp40TZkWW5oDMi2DwBtIfPT4jqcZZt8seI3x2sSnVCZ9L9ua2SbRjAqCaJZr-kc4MTVfCJTeS4jYRVkuFM59kb_]--></g></svg>